<svg width="32" height="32" viewBox="0 0 32 32" fill="none" xmlns="http://www.w3.org/2000/svg">
<path d="M19.7163 14.1413C19.6419 14.0328 19.5897 13.9108 19.5626 13.7821C19.5355 13.6535 19.5341 13.5207 19.5583 13.3915C19.5826 13.2623 19.6321 13.1391 19.7041 13.029C19.776 12.919 19.8689 12.8242 19.9775 12.7501L28.435 6.96255C28.6541 6.82703 28.917 6.78126 29.1689 6.83479C29.4209 6.88833 29.6425 7.03703 29.7876 7.24991C29.9326 7.4628 29.9899 7.72344 29.9475 7.97753C29.9051 8.23161 29.7663 8.45954 29.56 8.6138L21.1013 14.4013C20.9355 14.5156 20.7388 14.5767 20.5375 14.5763C20.3756 14.5757 20.2163 14.5358 20.0733 14.46C19.9302 14.3842 19.8077 14.2749 19.7163 14.1413ZM29.825 24.7776C29.6751 24.9963 29.4445 25.1466 29.1838 25.1954C28.9232 25.2442 28.6538 25.1874 28.435 25.0376L17 17.2126L11.6863 20.8476C12.0917 21.8771 12.1036 23.02 11.7196 24.0578C11.3357 25.0956 10.5828 25.9555 9.6049 26.4733C8.62699 26.9911 7.49259 27.1304 6.41845 26.8646C5.3443 26.5989 4.40573 25.9467 3.78206 25.0327C3.15839 24.1186 2.89335 23.0069 3.03758 21.9098C3.18181 20.8127 3.7252 19.8072 4.56392 19.0854C5.40265 18.3637 6.4779 17.9762 7.58423 17.9971C8.69056 18.0181 9.7504 18.4459 10.5613 19.1988L15.2288 16.0001L10.555 12.8013C9.74689 13.5504 8.69119 13.9755 7.58949 13.9956C6.48779 14.0157 5.41729 13.6293 4.58241 12.9102C3.74752 12.1911 3.20676 11.1897 3.06338 10.0972C2.91999 9.00465 3.18404 7.8976 3.80509 6.98742C4.42614 6.07723 5.36069 5.42768 6.43026 5.16281C7.49983 4.89794 8.6295 5.03631 9.60353 5.55148C10.5776 6.06666 11.3277 6.92255 11.7107 7.95572C12.0938 8.98889 12.0828 10.1269 11.68 11.1526L29.555 23.3863C29.6643 23.4597 29.758 23.554 29.8308 23.6638C29.9035 23.7735 29.9539 23.8966 29.979 24.0258C30.0041 24.1551 30.0034 24.2881 29.977 24.4171C29.9505 24.5461 29.8989 24.6686 29.825 24.7776ZM10 22.5001C10.0001 21.9217 9.79969 21.3611 9.43285 20.9139C9.06602 20.4668 8.55547 20.1606 7.98821 20.0477C7.42095 19.9347 6.83208 20.0219 6.32193 20.2945C5.81178 20.567 5.41192 21.0081 5.19048 21.5424C4.96904 22.0767 4.93972 22.6713 5.10752 23.2248C5.27533 23.7783 5.62986 24.2565 6.11073 24.578C6.59159 24.8994 7.16903 25.0441 7.74465 24.9875C8.32027 24.9309 8.85845 24.6765 9.2675 24.2676C9.5005 24.0361 9.68522 23.7607 9.81096 23.4572C9.93671 23.1538 10.001 22.8285 10 22.5001ZM9.2675 11.2663C9.61721 10.9167 9.85538 10.4712 9.95191 9.98627C10.0484 9.5013 9.99897 8.9986 9.80977 8.54174C9.62057 8.08488 9.30014 7.69439 8.889 7.41965C8.47787 7.14491 7.99449 6.99827 7.5 6.99827C7.00552 6.99827 6.52214 7.14491 6.111 7.41965C5.69986 7.69439 5.37943 8.08488 5.19023 8.54174C5.00103 8.9986 4.95157 9.5013 5.04809 9.98627C5.14462 10.4712 5.38279 10.9167 5.7325 11.2663C5.96337 11.5006 6.23852 11.6867 6.54195 11.8137C6.84539 11.9407 7.17105 12.0061 7.5 12.0061C7.82895 12.0061 8.15461 11.9407 8.45805 11.8137C8.76148 11.6867 9.03664 11.5006 9.2675 11.2663Z" fill="#FAFAF9"/>
</svg>
