<svg width="32" height="32" viewBox="0 0 32 32" fill="none" xmlns="http://www.w3.org/2000/svg">
<path d="M22 13.0001C22 13.2653 21.8946 13.5196 21.7071 13.7072C21.5196 13.8947 21.2652 14.0001 21 14.0001H11C10.7348 14.0001 10.4804 13.8947 10.2929 13.7072C10.1054 13.5196 10 13.2653 10 13.0001C10 12.7348 10.1054 12.4805 10.2929 12.2929C10.4804 12.1054 10.7348 12.0001 11 12.0001H21C21.2652 12.0001 21.5196 12.1054 21.7071 12.2929C21.8946 12.4805 22 12.7348 22 13.0001ZM21 16.0001H11C10.7348 16.0001 10.4804 16.1054 10.2929 16.2929C10.1054 16.4805 10 16.7348 10 17.0001C10 17.2653 10.1054 17.5196 10.2929 17.7072C10.4804 17.8947 10.7348 18.0001 11 18.0001H21C21.2652 18.0001 21.5196 17.8947 21.7071 17.7072C21.8946 17.5196 22 17.2653 22 17.0001C22 16.7348 21.8946 16.4805 21.7071 16.2929C21.5196 16.1054 21.2652 16.0001 21 16.0001ZM32 13.0001V16.0001C32 17.0609 31.5786 18.0783 30.8284 18.8285C30.0783 19.5786 29.0609 20.0001 28 20.0001H27.3512C26.4525 21.9751 24.6275 23.6788 21.9475 25.0201C20.1163 25.9182 18.1776 26.5781 16.1787 26.9838C16.0606 27.0055 15.9394 27.0055 15.8212 26.9838C13.8224 26.5781 11.8837 25.9182 10.0525 25.0201C7.375 23.6788 5.5475 21.9751 4.64875 20.0001H4C2.93913 20.0001 1.92172 19.5786 1.17157 18.8285C0.421427 18.0783 0 17.0609 0 16.0001V13.0001C0 11.9392 0.421427 10.9218 1.17157 10.1716C1.92172 9.42148 2.93913 9.00005 4 9.00005H4.10625C4.20078 8.71403 4.3587 8.45305 4.56822 8.2366C4.77774 8.02015 5.03345 7.85383 5.31625 7.75005L15.3162 4.1138C15.758 3.95376 16.242 3.95376 16.6838 4.1138L26.6838 7.75005C26.9666 7.85383 27.2223 8.02015 27.4318 8.2366C27.6413 8.45305 27.7992 8.71403 27.8937 9.00005H28C29.0609 9.00005 30.0783 9.42148 30.8284 10.1716C31.5786 10.9218 32 11.9392 32 13.0001ZM4.06875 18.0001C4.02308 17.6687 4.00011 17.3346 4 17.0001V11.0001C3.46957 11.0001 2.96086 11.2108 2.58579 11.5858C2.21071 11.9609 2 12.4696 2 13.0001V16.0001C2 16.5305 2.21071 17.0392 2.58579 17.4143C2.96086 17.7893 3.46957 18.0001 4 18.0001H4.06875ZM26 17.0001V9.6363L16 6.00005L6 9.6363V17.0001C6 22.6251 14.6362 24.6901 16 24.9801C17.3612 24.6901 26 22.6251 26 17.0001ZM30 13.0001C30 12.4696 29.7893 11.9609 29.4142 11.5858C29.0391 11.2108 28.5304 11.0001 28 11.0001V17.0001C27.9999 17.3346 27.9769 17.6687 27.9312 18.0001H28C28.5304 18.0001 29.0391 17.7893 29.4142 17.4143C29.7893 17.0392 30 16.5305 30 16.0001V13.0001Z" fill="#FAFAF9"/>
</svg>
